<svg id="Group_1017" data-name="Group 1017" xmlns="http://www.w3.org/2000/svg" width="50" height="70" viewBox="0 0 50 70">
  <circle id="Ellipse_110" data-name="Ellipse 110" cx="3.116" cy="3.116" r="3.116" transform="translate(27.519 10.228)" fill="#2079a9"/>
  <g id="Group_1016" data-name="Group 1016" transform="translate(0 0)">
    <g id="Group_1015" data-name="Group 1015" transform="translate(0 13.593)">
      <g id="Group_1014" data-name="Group 1014" transform="translate(0.49 22.468)">
        <path id="Path_455" data-name="Path 455" d="M4459.107-2583.445c12.886,0,17.536-9.045,18.938-12.933a39.678,39.678,0,0,0,1.483-5.143c.207-.9.385-1.677.7-2.671a13.579,13.579,0,0,1,6.131-7.2c.842-.429,2.871-1.568,3.245-3.024a1.775,1.775,0,0,0-.905-2.336,6.1,6.1,0,0,0-3.976-.511,5.148,5.148,0,0,0-1.83.711,19.6,19.6,0,0,0-8.471,10.424c-.4,1.247-.624,2.232-.842,3.183a33.447,33.447,0,0,1-1.269,4.412c-1.191,3.306-4.492,8.852-13.207,8.852-7.879,0-12.774-5.214-12.774-13.608a3.084,3.084,0,0,0-3.054-3.115,3.084,3.084,0,0,0-3.054,3.115c0,11.868,7.588,19.841,18.882,19.841Z" transform="translate(-4440.226 2617.384)" fill="#2079a9"/>
      </g>
      <path id="Path_456" data-name="Path 456" d="M4442.359-2686.34v-1.891h-3.784v1.891h-1.224v18.248h6.231v-18.248Z" transform="translate(-4437.352 2699.582)" fill="#2079a9" fill-rule="evenodd"/>
      <path id="Path_457" data-name="Path 457" d="M4499.014-2694.752l-6.23,5.341v15.912h6.23Z" transform="translate(-4483.539 2705.021)" fill="#2079a9" fill-rule="evenodd"/>
      <path id="Path_458" data-name="Path 458" d="M4554.443-2657.965l-3.115-2.225-3.116,2.225v13.13h6.231Z" transform="translate(-4529.721 2676.217)" fill="#2079a9" fill-rule="evenodd"/>
      <rect id="Rectangle_851" data-name="Rectangle 851" width="6.231" height="31.935" transform="translate(27.519)" fill="#2079a9"/>
    </g>
    <path id="Path_459" data-name="Path 459" d="M4554.861-2838.848a13.51,13.51,0,0,0-13.5,13.488c0,5.063,1.793,7.1,8.29,14.951v-7.286c-3.615-4.686-3.612-5.789-3.612-7.665a8.831,8.831,0,0,1,8.822-8.816,8.824,8.824,0,0,1,8.811,8.816c0,2.524-.551,3.682-3.019,6.8-.081.1-.273.328-.542.639v7.43c1.51-1.822,3.265-3.941,3.572-4.325,3.546-4.433,4.666-6.556,4.666-10.541A13.5,13.5,0,0,0,4554.861-2838.848Z" transform="translate(-4524.621 2838.848)" fill="#ffb400"/>
  </g>
</svg>
